<?xml version="1.0" encoding="utf-8"?>
<!-- Generator: Adobe Illustrator 27.7.0, SVG Export Plug-In . SVG Version: 6.00 Build 0)  -->
<svg version="1.1" id="Layer_1" xmlns="http://www.w3.org/2000/svg" xmlns:xlink="http://www.w3.org/1999/xlink" x="0px" y="0px"
	 viewBox="0 0 184.75 57.1" xml:space="preserve" >
<g>
	<path d="M15.44,17.71c2.28-1.2,4.88-1.8,7.81-1.8c3.41,0,6.49,0.84,9.25,2.52c2.76,1.68,4.94,4.07,6.55,7.16
		c1.61,3.1,2.41,6.68,2.41,10.76c0,4.08-0.8,7.69-2.41,10.84c-1.61,3.14-3.79,5.58-6.55,7.31c-2.76,1.73-5.84,2.59-9.25,2.59
		c-2.98,0-5.58-0.59-7.81-1.76c-2.23-1.18-4.02-2.7-5.36-4.57v5.69H0V3.17h10.08v19.22C11.38,20.47,13.16,18.91,15.44,17.71z
		 M29.7,30.13c-0.98-1.75-2.28-3.08-3.89-4c-1.61-0.91-3.35-1.37-5.22-1.37c-1.82,0-3.54,0.47-5.15,1.4
		c-1.61,0.94-2.9,2.29-3.89,4.07c-0.98,1.78-1.48,3.86-1.48,6.26c0,2.4,0.49,4.49,1.48,6.26c0.98,1.78,2.28,3.13,3.89,4.07
		c1.61,0.94,3.32,1.4,5.15,1.4c1.87,0,3.61-0.48,5.22-1.44c1.61-0.96,2.9-2.33,3.89-4.1c0.98-1.78,1.48-3.89,1.48-6.34
		C31.18,33.96,30.68,31.88,29.7,30.13z"/>
	<path d="M63.97,17.78c2.09-1.2,4.48-1.8,7.16-1.8v10.58h-2.66c-3.17,0-5.56,0.74-7.16,2.23c-1.61,1.49-2.41,4.08-2.41,7.78v19.87
		H48.82V16.56H58.9v6.19C60.19,20.64,61.88,18.98,63.97,17.78z"/>
	<path d="M77.72,25.63c1.61-3.12,3.79-5.52,6.55-7.2c2.76-1.68,5.84-2.52,9.25-2.52c2.98,0,5.58,0.6,7.81,1.8
		c2.23,1.2,4.02,2.71,5.36,4.54v-5.69h10.15v39.89H106.7v-5.83c-1.3,1.87-3.08,3.42-5.36,4.64c-2.28,1.22-4.91,1.84-7.88,1.84
		c-3.36,0-6.42-0.86-9.18-2.59c-2.76-1.73-4.94-4.16-6.55-7.31c-1.61-3.14-2.41-6.76-2.41-10.84
		C75.31,32.33,76.11,28.75,77.72,25.63z M105.26,30.2c-0.96-1.75-2.26-3.1-3.89-4.03c-1.63-0.94-3.38-1.4-5.26-1.4
		s-3.6,0.46-5.18,1.37c-1.58,0.91-2.87,2.24-3.85,4c-0.98,1.75-1.48,3.83-1.48,6.23c0,2.4,0.49,4.5,1.48,6.3
		c0.98,1.8,2.28,3.18,3.89,4.14c1.61,0.96,3.32,1.44,5.15,1.44c1.87,0,3.62-0.47,5.26-1.4c1.63-0.94,2.93-2.28,3.89-4.03
		c0.96-1.75,1.44-3.85,1.44-6.3C106.7,34.06,106.22,31.96,105.26,30.2z"/>
	<path d="M127.4,10.12c-1.18-1.13-1.76-2.53-1.76-4.21c0-1.68,0.59-3.08,1.76-4.21c1.18-1.13,2.65-1.69,4.43-1.69
		c1.78,0,3.25,0.56,4.43,1.69c1.18,1.13,1.76,2.53,1.76,4.21c0,1.68-0.59,3.08-1.76,4.21c-1.18,1.13-2.65,1.69-4.43,1.69
		C130.05,11.81,128.58,11.24,127.4,10.12z M136.8,16.56v39.89h-10.08V16.56H136.8z"/>
	<path d="M180.36,20.48c2.93,3,4.39,7.19,4.39,12.56v23.4h-10.08V34.42c0-3.17-0.79-5.6-2.38-7.31c-1.58-1.7-3.74-2.56-6.48-2.56
		c-2.78,0-4.98,0.85-6.59,2.56c-1.61,1.7-2.41,4.14-2.41,7.31v22.03h-10.08V16.56h10.08v4.97c1.34-1.73,3.06-3.08,5.15-4.07
		c2.09-0.98,4.38-1.48,6.88-1.48C173.59,15.98,177.43,17.48,180.36,20.48z"/>
</g>
</svg>
