<?xml version="1.0" encoding="utf-8"?>
<!-- Generator: Adobe Illustrator 27.6.1, SVG Export Plug-In . SVG Version: 6.00 Build 0)  -->
<svg version="1.1" id="Layer_1" xmlns="http://www.w3.org/2000/svg" xmlns:xlink="http://www.w3.org/1999/xlink" x="0px" y="0px"
	 viewBox="0 0 288 288" style="enable-background:new 0 0 288 288;" xml:space="preserve">
<style type="text/css">
	.st0{fill:#822866;}
	.st1{fill:#F7B8C8;stroke:#F4ABBD;stroke-width:10;stroke-miterlimit:10;}
	.st2{fill:#822866;stroke:#822866;stroke-miterlimit:10;}
	.st3{fill:none;stroke:#EDA4B3;stroke-width:5;stroke-linecap:round;stroke-miterlimit:10;}
	.st4{fill:none;stroke:#F7DCE3;stroke-width:3;stroke-linecap:round;stroke-miterlimit:10;}
	.st5{fill:none;stroke:#822866;stroke-width:5;stroke-linecap:round;stroke-miterlimit:10;}
	.st6{fill:#822866;stroke:#822866;stroke-linecap:round;stroke-linejoin:round;stroke-miterlimit:10;}
	.st7{fill:#F5DBF6;}
	.st8{fill:#F8E081;}
	.st9{fill:#A9C4E1;}
	.st10{fill:#829FB7;}
	.st11{fill:none;stroke:#F4F3E9;stroke-width:3;stroke-linecap:round;stroke-miterlimit:10;}
</style>
<g>
	<g>
		
			<ellipse transform="matrix(0.6428 -0.7661 0.7661 0.6428 -67.7041 95.6306)" class="st0" cx="68.69" cy="120.41" rx="7.8" ry="6.38"/>
		<path class="st0" d="M61.57,124.49c0,0,0,16,2,20s5.12-2.86,5.12-2.86s-4.12-13.14-2.12-18.14S61.57,124.49,61.57,124.49z"/>
	</g>
	<path class="st1" d="M126.71,123.07c0,0-30-12-36,11c0,0-30.5,1.5-23.5,30.5c0,0-27,20-4,35c0,0,7,1,9-2s0.36,2.16,0.36,2.16
		s-8.36,15.84,7.64,23.84c0,0,18,6,23.5,0c0,0,1.5,11,15.5,14c0,0,17.68,0.93,16.24-9.77c-0.05-0.39-0.13-0.8-0.24-1.23
		c-3-12,3,26,40,6c0,0,7-9,7-17c0,0-2,20,16,18c0,0,14-3,15-10c0,0,24,6,21-15c0,0,11-9,2-23c0,0,11-19-6-25c0,0,0-42-27-29
		c0,0-18-26-37-6C166.21,125.57,145.21,101.57,126.71,123.07z"/>
	<ellipse class="st2" cx="91.21" cy="169.57" rx="6.5" ry="8.5"/>
	<ellipse class="st2" cx="144.71" cy="174.07" rx="6.5" ry="8.5"/>
	<path class="st2" d="M130.64,238.5c0,0-7.93,16.57-2.93,27.57c0,0,0.86,4.71,2.93,7.86c0,0-3.93,0.14-9.93,4.14s2.5,5.5,2.5,5.5
		l15-3c0,0,0-4-2-9s-2-15-1-20c0.71-3.54,3-14.79,3-14.79L130.64,238.5z"/>
	<path class="st2" d="M164.21,238.57c0,0-4.27,18.68,0.73,29.68c0,0,0.86,4.71,2.93,7.86c0,0-3.93,0.14-9.93,4.14s2.5,5.5,2.5,5.5
		l15-3c0,0,0-4-2-9s-1.23-15.18-1.23-20.18c0-2.24,1-18,1-18L164.21,238.57z"/>
	<path class="st3" d="M94.71,202.07c0,0-4-20,13-23c0,0-9.5-8.5,2-23c0,0,4.36-10.64,19.93-8.07c0,0,1.57-24.14,21.57-22.29"/>
	<path class="st3" d="M145.71,212.07c2,0,17,0,17-14"/>
	<path class="st3" d="M165.71,141.07c0,0,19-7,20,8"/>
	<path class="st3" d="M200.39,163.84c0,0,15.32,5.23,9.32,16.23s4,12,4,12s9,8-2,14"/>
	<path class="st4" d="M99.71,133.07c0,0,5-8,14-6"/>
	<path class="st4" d="M117.35,161.07c0,0,2.93-6.61,8.14-6.3"/>
	<path class="st4" d="M165.71,165.57c0,0,7.36,0.54,3.93-1.73"/>
	<path class="st4" d="M138.71,135.07c0,0,4.26-4,8.13-2"/>
	<path class="st4" d="M73.71,152.07c0,0,2-5,4-5"/>
	<path class="st5" d="M87.57,149.99c0,0,4.5-1,9.5,1"/>
	<path class="st5" d="M142.57,155.96c0,0,4.5-0.97,8.68,1"/>
	<path class="st6" d="M101.07,185.99h26c0,0,1.25,15.06-13,16C114.07,201.99,100.07,202.42,101.07,185.99z"/>
	<path class="st7" d="M103.57,187.49c0,0-1,5,6,6c0.29,0.04,5.69,0.04,6,0c0,0,3,0,5-1c1.26-0.63,2.36-3.5,3-5
		C123.81,186.92,103.57,187.49,103.57,187.49z"/>
	<g>
		<circle class="st2" cx="206.07" cy="112.99" r="9"/>
		<path class="st2" d="M206.07,119.99c0,0,0.5,12.5-2,20c0,0-3,10-12,18c0,0-7,4-7,7c0,0,3,5,13-6c0,0,14-12,14-24
			c0,0,3.14-17,0.57-22S206.07,119.99,206.07,119.99z"/>
	</g>
	<path class="st0" d="M81.57,60.49c0,0,5-6,7-4s7,18,11,22c0,0-2,3-4,3S81.57,60.49,81.57,60.49z"/>
	<path class="st0" d="M107.57,41.49c0,0,8.43-4,11.71,0c0,0-0.29,25.43,0,29.71s-6.71,2.29-6.71,2.29l-5-30.86"/>
	<ellipse transform="matrix(0.1305 -0.9915 0.9915 0.1305 0.9592 179.0678)" class="st0" cx="102.57" cy="88.99" rx="4.5" ry="4"/>
	<circle class="st0" cx="118.07" cy="82.99" r="4.5"/>
	<path class="st8" d="M159.28,22.43L159.28,22.43c-1.44,1.2-3.58,1-4.78-0.44l-4.51-5.43c-1.2-1.44-1-3.58,0.44-4.78v0
		c1.44-1.2,3.58-1,4.78,0.44l4.51,5.43C160.92,19.08,160.72,21.23,159.28,22.43z"/>
	<path class="st8" d="M180.89,16.74L180.89,16.74c-1.88,0-3.4-1.52-3.4-3.4V5.88c0-1.88,1.52-3.4,3.4-3.4l0,0
		c1.88,0,3.4,1.52,3.4,3.4v7.46C184.28,15.22,182.76,16.74,180.89,16.74z"/>
	<path class="st8" d="M201.48,22.41L201.48,22.41c-1.44-1.2-1.63-3.34-0.43-4.78l5.33-6.38c1.2-1.44,3.34-1.63,4.78-0.43v0
		c1.44,1.2,1.63,3.34,0.43,4.78l-5.33,6.38C205.06,23.42,202.92,23.61,201.48,22.41z"/>
	<circle class="st8" cx="178.07" cy="42.99" r="20.5"/>
	<path class="st8" d="M180.28,68.49h-5.43c-2.37,0-4.29-1.92-4.29-4.29v-2.43c0-2.37,1.92-4.29,4.29-4.29h5.43
		c2.37,0,4.29,1.92,4.29,4.29v2.43C184.57,66.57,182.65,68.49,180.28,68.49z"/>
	<path class="st9" d="M169.53,64.16c0,0-2.35,5.22,2.05,9.86l2.6,1.43c0.34,0.19,0.53,0.56,0.48,0.94l1.11,4.15l2-0.05l1.68-3.62
		c0.06-0.59,0.44-1.1,1-1.31c1.17-0.46,3.23-1.52,4.57-3.68c1.95-3.18,0.22-7.04,0.22-7.04L169.53,64.16z"/>
	<g>
		<polygon class="st10" points="169.66,65.43 169.68,67.42 170.17,67.43 185.13,67.59 185.11,65.59 170.33,65.43 		"/>
		<polygon class="st10" points="169.72,71.21 185.17,71.37 185.16,69.37 169.71,69.21 		"/>
	</g>
	<rect x="173.57" y="73.49" class="st9" width="7" height="7"/>
	<path class="st11" d="M164.57,33.49c0,0,4-8,10-7"/>
	<path class="st8" d="M150.51,38.05L150.51,38.05c-0.77,1.71-2.78,2.48-4.49,1.71l-6.44-2.89c-1.71-0.77-2.48-2.78-1.71-4.49v0
		c0.77-1.71,2.78-2.48,4.49-1.71l6.44,2.89C150.51,34.33,151.28,36.34,150.51,38.05z"/>
	<path class="st8" d="M206.06,37.69L206.06,37.69c-0.61-1.77,0.32-3.71,2.1-4.32l7.85-2.72c1.77-0.61,3.71,0.32,4.32,2.1v0
		c0.61,1.77-0.32,3.71-2.1,4.32l-7.85,2.72C208.6,40.4,206.67,39.47,206.06,37.69z"/>
</g>
</svg>
