<?xml version="1.0" encoding="utf-8"?>
<!-- Generator: Adobe Illustrator 27.6.1, SVG Export Plug-In . SVG Version: 6.00 Build 0)  -->
<svg version="1.1" id="Layer_1" xmlns="http://www.w3.org/2000/svg" xmlns:xlink="http://www.w3.org/1999/xlink" x="0px" y="0px"
	 viewBox="0 0 288 288" style="enable-background:new 0 0 288 288;" xml:space="preserve">
<style type="text/css">
	.st0{fill:#F7B8C8;stroke:#F4ABBD;stroke-width:10;stroke-miterlimit:10;}
	.st1{fill:#822866;stroke:#822866;stroke-miterlimit:10;}
	.st2{fill:#822866;}
	.st3{fill:none;stroke:#EDA4B3;stroke-width:5;stroke-linecap:round;stroke-miterlimit:10;}
	.st4{fill:none;stroke:#F7DCE3;stroke-width:3;stroke-linecap:round;stroke-miterlimit:10;}
</style>
<g>
	<path class="st0" d="M126.71,93.16c0,0-30-12-36,11c0,0-30.5,1.5-23.5,30.5c0,0-27,20-4,35c0,0,7,1,9-2s0.36,2.16,0.36,2.16
		s-8.36,15.84,7.64,23.84c0,0,18,6,23.5,0c0,0,1.5,11,15.5,14c0,0,17.68,0.93,16.24-9.77c-0.05-0.39-0.13-0.8-0.24-1.23
		c-3-12,3,26,40,6c0,0,7-9,7-17c0,0-2,20,16,18c0,0,14-3,15-10c0,0,24,6,21-15c0,0,11-9,2-23c0,0,11-19-6-25c0,0,0-42-27-29
		c0,0-18-26-37-6C166.21,95.66,145.21,71.66,126.71,93.16z"/>
	<ellipse class="st1" cx="91.21" cy="139.66" rx="6.5" ry="8.5"/>
	<ellipse class="st1" cx="144.71" cy="144.16" rx="6.5" ry="8.5"/>
	<path class="st1" d="M103.21,162.66c0,0,11-9,23,0c0,0,7,6,1,6c-2,0-12.66-10.17-21-6C100.21,165.66,103.21,162.66,103.21,162.66z"
		/>
	<path class="st2" d="M134.71,127.16c0,0,9-11,23-3c0,0,4.48,3-4.79,3C151.71,127.16,150.71,123.16,134.71,127.16z"/>
	<path class="st1" d="M83.71,118.94c0,0,4.5-5.29,14.5-4.29c0,0,8.21,2.58,4.86,9.54c0,0-2.86,3.46-5.86-5.54
		c0,0-6.71-3.83-12.36,2.58C84.85,121.24,82.21,122.23,83.71,118.94z"/>
	<path class="st1" d="M193.71,178.16l1-7c0,0,4-3,4,1v25.86c0,0-2,15.71,0,19.43c2,3.71,8,4.71,4,10.71c0,0-3,3.57-9-2.71
		c0,0-3-7.29-2-20.29S193.71,178.16,193.71,178.16z"/>
	<path class="st1" d="M130.64,208.59c0,0-7.93,16.57-2.93,27.57c0,0,0.86,4.71,2.93,7.86c0,0-3.93,0.14-9.93,4.14s2.5,5.5,2.5,5.5
		l15-3c0,0,0-4-2-9s-2-15-1-20c0.71-3.54,3-14.79,3-14.79L130.64,208.59z"/>
	<path class="st1" d="M164.21,208.66c0,0-4.27,18.68,0.73,29.68c0,0,0.86,4.71,2.93,7.86c0,0-3.93,0.14-9.93,4.14s2.5,5.5,2.5,5.5
		l15-3c0,0,0-4-2-9s-1.23-15.18-1.23-20.18c0-2.24,1-18,1-18L164.21,208.66z"/>
	<path class="st1" d="M61.71,174.16c0,0-8.5,24.5,14.5,29.5c0,0,15.83,1.79,25.66-11.36c0,0,13.84-0.14,9.84-10.14l7-2
		c0,0,1-3.43,0-3.71c-1-0.29-8-0.29-10,2.71c0,0-3,3-6,2s-2-6-5-5c0,0-2,2,1,6c0,0-2.23,7.27-0.14,7.02
		c0.14-0.02-9.36,9.48-15.36,9.48c-0.43,0-14,4-18-9c0,0-2-11,0.5-14.5C66.29,174.34,61.71,174.16,61.71,174.16z"/>
	<path class="st3" d="M94.71,172.16c0,0-4-20,13-23c0,0-9.5-8.5,2-23c0,0,4.36-10.64,19.93-8.07c0,0,1.57-24.14,21.57-22.29"/>
	<path class="st3" d="M145.71,182.16c2,0,17,0,17-14"/>
	<path class="st3" d="M165.71,111.16c0,0,19-7,20,8"/>
	<path class="st3" d="M200.39,133.93c0,0,15.32,5.23,9.32,16.23s4,12,4,12s9,8-2,14"/>
	<path class="st4" d="M99.71,103.16c0,0,5-8,14-6"/>
	<path class="st4" d="M117.35,131.16c0,0,2.93-6.61,8.14-6.3"/>
	<path class="st4" d="M165.71,135.66c0,0,7.36,0.54,3.93-1.73"/>
	<path class="st4" d="M138.71,105.16c0,0,4.26-4,8.13-2"/>
	<path class="st4" d="M73.71,122.16c0,0,2-5,4-5"/>
	<path class="st1" d="M58.21,49.66c0,0,1,7,7.5-0.5c0,0,6-10,13-7c0,0,6,4.57,0,11.29c0,0-9.5,10.21-10.5,14.21
		c-0.49,1.94,0.96,6.62,4.5,4.5c2.5-1.5,2.5-7.5,2.5-7.5s13.14-9.85,12-19c-1-8-3.71-13.06-16.5-10.5
		C58.21,37.66,58.21,49.66,58.21,49.66z"/>
	<circle class="st2" cx="72.71" cy="81.16" r="5"/>
	<path class="st1" d="M89.7,42.82c0,0-0.51,6.15,6.48,1.03c0,0,7.05-7.35,12.43-3.43c0,0,4.22,5.06-2.19,9.61
		c0,0-10.08,6.85-11.7,10.06c-0.79,1.56-0.63,5.04,2.96,4.71c1.54-0.14,4-5.74,4-5.74s12.7-5.99,13.5-14
		c0.7-7.01-0.62-11.84-12.01-12.15C92.03,32.61,89.7,42.82,89.7,42.82z"/>
	<circle class="st2" cx="97.43" cy="71.7" r="4.37"/>
</g>
</svg>
