<?xml version="1.0" encoding="utf-8"?>
<!-- Generator: Adobe Illustrator 27.6.1, SVG Export Plug-In . SVG Version: 6.00 Build 0)  -->
<svg version="1.1" xmlns="http://www.w3.org/2000/svg" xmlns:xlink="http://www.w3.org/1999/xlink" x="0px" y="0px"
	 viewBox="0 0 288 288" style="enable-background:new 0 0 288 288;" xml:space="preserve">
<style type="text/css">
	.st0{display:none;}
	.st1{display:inline;}
	.st2{fill:#98537E;}
	.st3{fill:#7C355B;}
	.st4{fill:#822866;stroke:#822866;stroke-miterlimit:10;}
	.st5{fill:#F7B8C8;stroke:#F4ABBD;stroke-width:10;stroke-miterlimit:10;}
	.st6{fill:none;stroke:#EDA4B3;stroke-width:5;stroke-linecap:round;stroke-miterlimit:10;}
	.st7{fill:#CFC3C7;}
	.st8{fill:none;stroke:#F7DCE3;stroke-width:3;stroke-linecap:round;stroke-miterlimit:10;}
	.st9{fill:none;stroke:#822866;stroke-width:5;stroke-linecap:round;stroke-miterlimit:10;}
	.st10{fill:#65264A;}
	.st11{fill:none;stroke:#B16D90;stroke-width:3;stroke-linecap:round;stroke-miterlimit:10;}
	.st12{fill:#822866;}
</style>
<g id="Layer_1" class="st0">
	<g class="st1">
		<g>
			<ellipse class="st2" cx="40.9" cy="72.89" rx="20.5" ry="32"/>
			
				<ellipse transform="matrix(0.9942 -0.1078 0.1078 0.9942 -7.7263 6.6598)" class="st3" cx="57.75" cy="74.81" rx="29.64" ry="46.98"/>
		</g>
		<path class="st4" d="M89.4,66.64c0.02,1.64,0,33.57,0,33.57l7.5,3.67v-39L89.4,66.64z"/>
		<path class="st5" d="M120.33,101.97c0,0-30-12-36,11c0,0-30.5,1.5-23.5,30.5c0,0-27,20-4,35c0,0,7,1,9-2s0.36,2.16,0.36,2.16
			s-8.36,15.84,7.64,23.84c0,0,18,6,23.5,0c0,0,1.5,11,15.5,14c0,0,17.68,0.93,16.24-9.77c-0.05-0.39-0.13-0.8-0.24-1.23
			c-3-12,3,26,40,6c0,0,7-9,7-17c0,0-2,20,16,18c0,0,14-3,15-10c0,0,24,6,21-15c0,0,11-9,2-23c0,0,11-19-6-25c0,0,0-42-27-29
			c0,0-18-26-37-6C159.83,104.47,138.83,80.47,120.33,101.97z"/>
		<ellipse class="st4" cx="84.83" cy="148.47" rx="6.5" ry="8.5"/>
		<ellipse class="st4" cx="138.33" cy="152.97" rx="6.5" ry="8.5"/>
		<path class="st4" d="M124.26,217.4c0,0-7.93,16.57-2.93,27.57c0,0,0.86,4.71,2.93,7.86c0,0-3.93,0.14-9.93,4.14s2.5,5.5,2.5,5.5
			l15-3c0,0,0-4-2-9c-2-5-2-15-1-20c0.71-3.54,3-14.79,3-14.79L124.26,217.4z"/>
		<path class="st4" d="M157.83,217.47c0,0-4.27,18.68,0.73,29.68c0,0,0.86,4.71,2.93,7.86c0,0-3.93,0.14-9.93,4.14
			c-6,4,2.5,5.5,2.5,5.5l15-3c0,0,0-4-2-9c-2-5-1.23-15.18-1.23-20.18c0-2.24,1-18,1-18L157.83,217.47z"/>
		<path class="st6" d="M88.33,180.97c0,0-4-20,13-23c0,0-9.5-8.5,2-23c0,0,4.36-10.64,19.93-8.07c0,0,1.57-24.14,21.57-22.29"/>
		<path class="st7" d="M60.33,72.17c0,0,27.01-20.71,126.04-8l17.89,1.94l-2.36,9.28c0,0-55-6-77-5c0,0-39,1-51,7c0,0-7,3-10,3
			C63.9,80.39,60.75,76.96,60.33,72.17z"/>
		<path class="st6" d="M139.33,190.97c2,0,17,0,17-14"/>
		<path class="st6" d="M159.33,119.97c0,0,19-7,20,8"/>
		<path class="st6" d="M194,142.74c0,0,15.32,5.23,9.32,16.23s4,12,4,12s9,8-2,14"/>
		<path class="st8" d="M93.33,111.97c0,0,5-8,14-6"/>
		<path class="st8" d="M110.97,139.97c0,0,2.93-6.61,8.14-6.3"/>
		<path class="st8" d="M159.33,144.47c0,0,7.36,0.54,3.93-1.73"/>
		<path class="st8" d="M132.33,113.97c0,0,4.26-4,8.13-2"/>
		<path class="st8" d="M67.33,130.97c0,0,2-5,4-5"/>
		<path class="st4" d="M187.9,125.39l-4,8c0,0,0,6,7-1s11-29,11-29l1-35c0,0-11-12-17-2s12,12,12,12s0.85,14.61-1,22
			C194.9,108.39,195.9,108.39,187.9,125.39z"/>
		<path class="st9" d="M95.4,170.89c0,0,7.5,14.45,23,1.82"/>
		
			<ellipse transform="matrix(0.2484 -0.9687 0.9687 0.2484 99.9434 275.1345)" class="st3" cx="227.26" cy="73.17" rx="46.98" ry="29.64"/>
		
			<ellipse transform="matrix(0.1933 -0.9811 0.9811 0.1933 117.7339 294.9705)" class="st2" cx="238.25" cy="75.89" rx="34" ry="25.63"/>
		
			<ellipse transform="matrix(0.1283 -0.9917 0.9917 0.1283 140.6694 317.7145)" class="st10" cx="251.07" cy="78.84" rx="13.63" ry="9.97"/>
		<path class="st4" d="M99.9,61c0,12.6-4.92,11.74-4.92,11.74C87.6,74.42,88.42,61,88.42,61S99.9,58.49,99.9,61z"/>
		<path class="st11" d="M206.9,54.39c-0.49-1.34,11-26,34-23"/>
		<path class="st11" d="M222.9,61.39c1-4,6-13,18.36-13.59"/>
		<path class="st11" d="M38.9,43.39c0,0,9.71-16.5,21.86-10.25"/>
	</g>
</g>
<g id="Layer_2">
	<path class="st5" d="M173.23,96.62c0,0,30-12,36,11c0,0,30.5,1.5,23.5,30.5c0,0,27,20,4,35c0,0-7,1-9-2s-0.36,2.16-0.36,2.16
		s8.36,15.84-7.64,23.84c0,0-18,6-23.5,0c0,0-1.5,11-15.5,14c0,0-17.68,0.93-16.24-9.77c0.05-0.39,0.13-0.8,0.24-1.23
		c3-12-3,26-40,6c0,0-7-9-7-17c0,0,2,20-16,18c0,0-14-3-15-10c0,0-24,6-21-15c0,0-11-9-2-23c0,0-11-19,6-25c0,0,0-42,27-29
		c0,0,18-26,37-6C133.73,99.12,154.73,75.12,173.23,96.62z"/>
	<ellipse class="st4" cx="208.73" cy="143.12" rx="6.5" ry="8.5"/>
	<ellipse class="st4" cx="155.23" cy="147.62" rx="6.5" ry="8.5"/>
	<path class="st4" d="M196.73,166.12c0,0-11-9-23,0c0,0-7,6-1,6c2,0,12.66-10.17,21-6C199.73,169.12,196.73,166.12,196.73,166.12z"
		/>
	<path class="st12" d="M165.23,130.62c0,0-9-11-23-3c0,0-4.48,3,4.79,3C148.23,130.62,149.23,126.62,165.23,130.62z"/>
	<path class="st4" d="M216.23,122.41c0,0-4.5-5.29-14.5-4.29c0,0-8.21,2.58-4.86,9.54c0,0,2.86,3.46,5.86-5.54
		c0,0,6.71-3.83,12.36,2.58C215.08,124.7,217.73,125.69,216.23,122.41z"/>
	<path class="st4" d="M106.23,181.62l-1-7c0,0-4-3-4,1v25.86c0,0,2,15.71,0,19.43c-2,3.71-8,4.71-4,10.71c0,0,3,3.57,9-2.71
		c0,0,3-7.29,2-20.29S106.23,181.62,106.23,181.62z"/>
	<path class="st4" d="M169.3,212.05c0,0,7.93,16.57,2.93,27.57c0,0-0.86,4.71-2.93,7.86c0,0,3.93,0.14,9.93,4.14s-2.5,5.5-2.5,5.5
		l-15-3c0,0,0-4,2-9s2-15,1-20c-0.71-3.54-3-14.79-3-14.79L169.3,212.05z"/>
	<path class="st4" d="M135.73,212.12c0,0,4.27,18.68-0.73,29.68c0,0-0.86,4.71-2.93,7.86c0,0,3.93,0.14,9.93,4.14
		c6,4-2.5,5.5-2.5,5.5l-15-3c0,0,0-4,2-9c2-5,1.23-15.18,1.23-20.18c0-2.24-1-18-1-18L135.73,212.12z"/>
	<path class="st4" d="M238.23,177.62c0,0,8.5,24.5-14.5,29.5c0,0-15.83,1.79-25.66-11.36c0,0-13.84-0.14-9.84-10.14l-7-2
		c0,0-1-3.43,0-3.71c1-0.29,8-0.29,10,2.71c0,0,3,3,6,2s2-6,5-5c0,0,2,2-1,6c0,0,2.23,7.27,0.14,7.02
		c-0.14-0.02,9.36,9.48,15.36,9.48c0.43,0,14,4,18-9c0,0,2-11-0.5-14.5C233.65,177.81,238.23,177.62,238.23,177.62z"/>
	<path class="st6" d="M205.23,175.62c0,0,4-20-13-23c0,0,9.5-8.5-2-23c0,0-4.36-10.64-19.93-8.07c0,0-1.57-24.14-21.57-22.29"/>
	<path class="st6" d="M154.23,185.62c-2,0-17,0-17-14"/>
	<path class="st6" d="M134.23,114.62c0,0-19-7-20,8"/>
	<path class="st6" d="M99.55,137.39c0,0-15.32,5.23-9.32,16.23s-4,12-4,12s-9,8,2,14"/>
	<path class="st8" d="M200.23,106.62c0,0-5-8-14-6"/>
	<path class="st8" d="M182.58,134.62c0,0-2.93-6.61-8.14-6.3"/>
	<path class="st8" d="M134.23,139.12c0,0-7.36,0.54-3.93-1.73"/>
	<path class="st8" d="M161.23,108.62c0,0-4.26-4-8.13-2"/>
	<path class="st8" d="M226.23,125.62c0,0-2-5-4-5"/>
	<path class="st4" d="M184.61,48.12c0,0,1,7,7.5-0.5c0,0,6-10,13-7c0,0,6,4.57,0,11.29c0,0-9.5,10.21-10.5,14.21
		c-0.49,1.94,0.96,6.62,4.5,4.5c2.5-1.5,2.5-7.5,2.5-7.5s13.14-9.85,12-19c-1-8-3.71-13.06-16.5-10.5
		C184.61,36.12,184.61,48.12,184.61,48.12z"/>
	<path class="st12" d="M204.11,79.62c0,2.76-2.24,5-5,5c-2.76,0-5-2.24-5-5c0-2.76,2.24-5,5-5
		C201.87,74.62,204.11,76.86,204.11,79.62z"/>
	<path class="st4" d="M216.1,41.29c0,0-0.51,6.15,6.48,1.03c0,0,7.05-7.35,12.43-3.43c0,0,4.22,5.06-2.19,9.61
		c0,0-10.08,6.85-11.7,10.06c-0.79,1.56-0.63,5.04,2.96,4.71c1.54-0.14,4-5.74,4-5.74s12.7-5.99,13.5-14
		c0.7-7.01-0.62-11.84-12.01-12.15C218.44,31.07,216.1,41.29,216.1,41.29z"/>
	<circle class="st12" cx="223.83" cy="70.17" r="4.37"/>
</g>
</svg>
