<?xml version="1.0" encoding="utf-8"?>
<!-- Generator: Adobe Illustrator 27.7.0, SVG Export Plug-In . SVG Version: 6.00 Build 0)  -->
<svg class="fill-red-500" version="1.1" id="Layer_1" xmlns="http://www.w3.org/2000/svg" xmlns:xlink="http://www.w3.org/1999/xlink" x="0px" y="0px"
	 viewBox="0 0 260.57 72.94" xml:space="preserve">

<g>
	<path class="st0" d="M26.06,14.51c2.26,1.18,4.03,2.7,5.33,4.57v-5.69h10.15v40.18c0,3.7-0.74,7-2.23,9.9
		c-1.49,2.9-3.72,5.21-6.7,6.91c-2.98,1.7-6.58,2.56-10.8,2.56c-5.66,0-10.31-1.32-13.93-3.96c-3.62-2.64-5.68-6.24-6.16-10.8h10.01
		c0.53,1.82,1.67,3.28,3.42,4.36c1.75,1.08,3.88,1.62,6.37,1.62c2.93,0,5.3-0.88,7.13-2.63c1.82-1.75,2.74-4.4,2.74-7.96v-6.19
		c-1.3,1.87-3.08,3.43-5.36,4.68c-2.28,1.25-4.88,1.87-7.81,1.87c-3.36,0-6.43-0.86-9.22-2.59c-2.78-1.73-4.98-4.16-6.59-7.31
		C0.8,40.88,0,37.27,0,33.19c0-4.03,0.8-7.61,2.41-10.73c1.61-3.12,3.79-5.52,6.55-7.2c2.76-1.68,5.84-2.52,9.25-2.52
		C21.19,12.74,23.81,13.33,26.06,14.51z M29.95,27.04c-0.96-1.75-2.26-3.1-3.89-4.03c-1.63-0.94-3.38-1.4-5.26-1.4
		s-3.6,0.46-5.18,1.37c-1.58,0.91-2.87,2.24-3.85,4c-0.98,1.75-1.48,3.83-1.48,6.23c0,2.4,0.49,4.5,1.48,6.3
		c0.98,1.8,2.28,3.18,3.89,4.14c1.61,0.96,3.32,1.44,5.15,1.44c1.87,0,3.62-0.47,5.26-1.4c1.63-0.94,2.93-2.28,3.89-4.03
		c0.96-1.75,1.44-3.85,1.44-6.3C31.39,30.89,30.91,28.79,29.95,27.04z"/>
	<path class="st0" d="M66.56,14.62c2.09-1.2,4.48-1.8,7.16-1.8V23.4h-2.66c-3.17,0-5.56,0.74-7.16,2.23
		c-1.61,1.49-2.41,4.08-2.41,7.78v19.87H51.41V13.39h10.08v6.19C62.78,17.47,64.48,15.82,66.56,14.62z"/>
	<path class="st0" d="M87.84,51.37c-3.07-1.7-5.48-4.12-7.24-7.24c-1.75-3.12-2.63-6.72-2.63-10.8c0-4.08,0.9-7.68,2.7-10.8
		c1.8-3.12,4.26-5.53,7.38-7.24c3.12-1.7,6.6-2.56,10.44-2.56c3.84,0,7.32,0.85,10.44,2.56c3.12,1.7,5.58,4.12,7.38,7.24
		c1.8,3.12,2.7,6.72,2.7,10.8c0,4.08-0.92,7.68-2.77,10.8c-1.85,3.12-4.34,5.53-7.49,7.24c-3.14,1.7-6.66,2.56-10.55,2.56
		C94.37,53.93,90.91,53.08,87.84,51.37z M103.35,43.81c1.61-0.89,2.89-2.22,3.85-4c0.96-1.78,1.44-3.94,1.44-6.48
		c0-3.79-1-6.71-2.99-8.75c-1.99-2.04-4.43-3.06-7.31-3.06c-2.88,0-5.29,1.02-7.24,3.06c-1.94,2.04-2.92,4.96-2.92,8.75
		c0,3.79,0.95,6.71,2.84,8.75c1.9,2.04,4.28,3.06,7.16,3.06C100.03,45.14,101.75,44.7,103.35,43.81z"/>
	<path class="st0" d="M164.09,13.39v39.89h-10.15v-5.04c-1.3,1.73-2.99,3.08-5.08,4.07c-2.09,0.98-4.36,1.48-6.8,1.48
		c-3.12,0-5.88-0.66-8.28-1.98c-2.4-1.32-4.28-3.26-5.65-5.83c-1.37-2.57-2.05-5.63-2.05-9.18v-23.4h10.08v21.96
		c0,3.17,0.79,5.6,2.38,7.31c1.58,1.7,3.74,2.56,6.48,2.56c2.78,0,4.97-0.85,6.55-2.56c1.58-1.7,2.38-4.14,2.38-7.31V13.39H164.09z"
		/>
	<path class="st0" d="M207.65,17.32c2.93,3,4.39,7.19,4.39,12.56v23.4h-10.08V31.25c0-3.17-0.79-5.6-2.38-7.31
		c-1.58-1.7-3.74-2.56-6.48-2.56c-2.78,0-4.98,0.85-6.59,2.56c-1.61,1.7-2.41,4.14-2.41,7.31v22.03h-10.08V13.39h10.08v4.97
		c1.34-1.73,3.06-3.08,5.15-4.07c2.09-0.98,4.38-1.48,6.88-1.48C200.88,12.82,204.72,14.32,207.65,17.32z"/>
	<path class="st0" d="M221.43,22.46c1.61-3.12,3.8-5.52,6.59-7.2c2.78-1.68,5.88-2.52,9.29-2.52c2.59,0,5.06,0.56,7.42,1.69
		c2.35,1.13,4.22,2.63,5.62,4.5V0h10.22v53.28h-10.22v-5.9c-1.25,1.97-3,3.55-5.26,4.75c-2.26,1.2-4.87,1.8-7.85,1.8
		c-3.36,0-6.43-0.86-9.22-2.59c-2.78-1.73-4.98-4.16-6.59-7.31c-1.61-3.14-2.41-6.76-2.41-10.84
		C219.02,29.16,219.82,25.58,221.43,22.46z M248.97,27.04c-0.96-1.75-2.26-3.1-3.89-4.03c-1.63-0.94-3.38-1.4-5.26-1.4
		s-3.6,0.46-5.18,1.37c-1.58,0.91-2.87,2.24-3.85,4c-0.98,1.75-1.48,3.83-1.48,6.23c0,2.4,0.49,4.5,1.48,6.3
		c0.98,1.8,2.28,3.18,3.89,4.14c1.61,0.96,3.32,1.44,5.15,1.44c1.87,0,3.62-0.47,5.26-1.4c1.63-0.94,2.93-2.28,3.89-4.03
		c0.96-1.75,1.44-3.85,1.44-6.3C250.41,30.89,249.93,28.79,248.97,27.04z"/>
</g>
</svg>
